<svg viewBox="0 0 900 620" xmlns="http://www.w3.org/2000/svg" role="img" aria-labelledby="uc-title uc-desc">
  <title id="uc-title">Ripe mangoes left unharvested on the tree</title>
  <desc id="uc-desc">Flat illustration of a full-grown mango tree heavy with ripe fruit, an empty weighing scale beneath it, and a farmer standing with empty hands, showing income that never reached the household.</desc>
  <rect width="900" height="620" fill="#fffaf0"/>
  <rect width="900" height="430" fill="#eaf1e5"/>
  <circle cx="792" cy="86" r="46" fill="#ffd865"/>
  <path d="M0 430 Q 450 400 900 430 L900 620 L0 620 Z" fill="#d9cba6"/>
  <path d="M0 470 Q 450 450 900 470 L900 620 L0 620 Z" fill="#c9b98d"/>

  <g>
    <rect x="70" y="330" width="18" height="180" fill="#5a3a22"/>
    <rect x="76" y="230" width="10" height="120" fill="#5a3a22"/>
    <ellipse cx="79" cy="200" rx="150" ry="120" fill="#2f7b3d"/>
    <ellipse cx="20" cy="240" rx="95" ry="80" fill="#3a8c48"/>
    <ellipse cx="150" cy="250" rx="100" ry="82" fill="#3a8c48"/>
    <ellipse cx="79" cy="140" rx="110" ry="70" fill="#4a9c56"/>
    <g fill="#ffb51b" stroke="#c98a10" stroke-width="1.5">
      <ellipse cx="-30" cy="190" rx="14" ry="18"/>
      <ellipse cx="10" cy="230" rx="14" ry="18"/>
      <ellipse cx="55" cy="185" rx="14" ry="18"/>
      <ellipse cx="95" cy="235" rx="14" ry="18"/>
      <ellipse cx="140" cy="190" rx="14" ry="18"/>
      <ellipse cx="180" cy="230" rx="14" ry="18"/>
      <ellipse cx="30" cy="140" rx="14" ry="18"/>
      <ellipse cx="120" cy="140" rx="14" ry="18"/>
      <ellipse cx="70" cy="100" rx="14" ry="18"/>
      <ellipse cx="-5" cy="270" rx="14" ry="18"/>
      <ellipse cx="65" cy="275" rx="14" ry="18"/>
      <ellipse cx="150" cy="270" rx="14" ry="18"/>
    </g>
  </g>

  <g transform="translate(360,60)">
    <rect x="6" y="292" width="16" height="150" fill="#5a3a22"/>
    <rect x="10" y="200" width="8" height="100" fill="#5a3a22"/>
    <ellipse cx="14" cy="180" rx="140" ry="112" fill="#2f7b3d"/>
    <ellipse cx="-40" cy="215" rx="88" ry="74" fill="#3a8c48"/>
    <ellipse cx="70" cy="222" rx="92" ry="76" fill="#3a8c48"/>
    <ellipse cx="14" cy="128" rx="100" ry="64" fill="#4a9c56"/>
    <g fill="#ffb51b" stroke="#c98a10" stroke-width="1.5">
      <ellipse cx="-60" cy="175" rx="13" ry="17"/>
      <ellipse cx="-20" cy="215" rx="13" ry="17"/>
      <ellipse cx="20" cy="170" rx="13" ry="17"/>
      <ellipse cx="55" cy="215" rx="13" ry="17"/>
      <ellipse cx="95" cy="175" rx="13" ry="17"/>
      <ellipse cx="0" cy="125" rx="13" ry="17"/>
      <ellipse cx="60" cy="120" rx="13" ry="17"/>
      <ellipse cx="30" cy="250" rx="13" ry="17"/>
    </g>
  </g>

  <g transform="translate(660,90)">
    <rect x="6" y="262" width="14" height="130" fill="#5a3a22"/>
    <ellipse cx="12" cy="160" rx="115" ry="92" fill="#2f7b3d"/>
    <ellipse cx="-35" cy="185" rx="72" ry="60" fill="#3a8c48"/>
    <ellipse cx="55" cy="190" rx="76" ry="62" fill="#3a8c48"/>
    <g fill="#ffb51b" stroke="#c98a10" stroke-width="1.5">
      <ellipse cx="-45" cy="150" rx="11" ry="14"/>
      <ellipse cx="-10" cy="185" rx="11" ry="14"/>
      <ellipse cx="30" cy="150" rx="11" ry="14"/>
      <ellipse cx="60" cy="185" rx="11" ry="14"/>
      <ellipse cx="10" cy="105" rx="11" ry="14"/>
    </g>
  </g>

  <g transform="translate(205,455)">
    <rect x="52" y="-32" width="8" height="70" fill="#8a2d18"/>
    <rect x="0" y="-38" width="112" height="8" rx="2" fill="#8a2d18"/>
    <circle cx="56" cy="-38" r="6" fill="#8a2d18"/>
    <path d="M0 -30 L -26 6 L 26 6 Z" fill="none" stroke="#8a2d18" stroke-width="4" stroke-linejoin="round"/>
    <path d="M112 -30 L 86 6 L 138 6 Z" fill="none" stroke="#8a2d18" stroke-width="4" stroke-linejoin="round"/>
    <ellipse cx="0" cy="6" rx="30" ry="6" fill="none" stroke="#8a2d18" stroke-width="4"/>
    <ellipse cx="112" cy="6" rx="30" ry="6" fill="none" stroke="#8a2d18" stroke-width="4"/>
    <rect x="34" y="38" width="44" height="34" fill="#8a2d18"/>
    <text x="56" y="61" text-anchor="middle" font-family="Georgia,serif" font-weight="700" font-size="16" fill="#fff">0</text>
  </g>

  <g transform="translate(120,388)">
    <circle cx="34" cy="18" r="17" fill="#3a2417"/>
    <path d="M2 95 Q 2 45 34 45 Q 66 45 66 95 Z" fill="#fdfaf3"/>
    <rect x="14" y="90" width="16" height="60" fill="#2c2118"/>
    <rect x="38" y="90" width="16" height="60" fill="#2c2118"/>
    <path d="M2 60 Q -20 68 -22 90" fill="none" stroke="#c9986b" stroke-width="10" stroke-linecap="round"/>
    <path d="M66 60 Q 88 68 90 90" fill="none" stroke="#c9986b" stroke-width="10" stroke-linecap="round"/>
  </g>

  <g transform="translate(700,420)" text-anchor="middle">
    <rect x="-118" y="-56" width="236" height="112" rx="8" fill="#ffffff" stroke="#a93322" stroke-width="2"/>
    <text x="0" y="-18" font-family="Georgia,serif" font-weight="700" font-size="15" fill="#142317">Fruit stays on the tree</text>
    <text x="0" y="6" font-family="Arial,sans-serif" font-size="12" fill="#617063">Harvest labour, sale, income —</text>
    <text x="0" y="24" font-family="Arial,sans-serif" font-size="12" fill="#617063">all paused with the price.</text>
  </g>
</svg>
